<svg viewBox="0 0 24 24" fill="none" xmlns="http://www.w3.org/2000/svg">
    <g id="SVGRepo_bgCarrier" stroke-width="0"></g>
    <g
        id="SVGRepo_tracerCarrier"
        stroke-linecap="round"
        stroke-linejoin="round"
    >
    </g>
    <g id="SVGRepo_iconCarrier">
    <path
        d="M5.11596 12.7268L8.15456 9.08666C8.46255 8.69067 8.61655 8.49267 8.69726 8.27061C8.76867 8.07411 8.79821 7.86486 8.784 7.65628C8.76793 7.42055 8.67477 7.18766 8.48846 6.72187L7.77776 4.94513C7.50204 4.25581 7.36417 3.91116 7.12635 3.68525C6.91678 3.48618 6.65417 3.3519 6.37009 3.29856C6.0477 3.23803 5.68758 3.32806 4.96733 3.50812L3 4.00002C3 14 9.99969 21 20 21L20.4916 19.0324C20.6717 18.3122 20.7617 17.952 20.7012 17.6297C20.6478 17.3456 20.5136 17.083 20.3145 16.8734C20.0886 16.6356 19.7439 16.4977 19.0546 16.222L17.4691 15.5878C16.9377 15.3752 16.672 15.2689 16.4071 15.2608C16.1729 15.2536 15.9404 15.3013 15.728 15.4002C15.4877 15.512 15.2854 15.7144 14.8807 16.1191L11.7943 19.1569"
        stroke="#ffffff"
        stroke-width="2"
        stroke-linecap="round"
        stroke-linejoin="round"
    >
    </path>
    </g>
</svg>